<?xml version="1.0" encoding="utf-8"?>
<!-- Generator: Adobe Illustrator 22.0.0, SVG Export Plug-In . SVG Version: 6.00 Build 0)  -->
<svg version="1.1" id="Layer_1" xmlns="http://www.w3.org/2000/svg" xmlns:xlink="http://www.w3.org/1999/xlink" x="0px" y="0px"
	 viewBox="0 0 161 33" style="enable-background:new 0 0 161 33;" xml:space="preserve">
<style type="text/css">
	.st0{fill:url(#SVGID_1_);}
	.st1{clip-path:url(#SVGID_3_);fill:url(#SVGID_4_);}
	.st2{clip-path:url(#SVGID_6_);}
	.st3{fill:#13E5F4;}
	.st4{fill:url(#SVGID_7_);}
	.st5{fill:url(#SVGID_8_);}
	.st6{fill:url(#SVGID_9_);}
	.st7{fill:url(#SVGID_10_);}
	.st8{fill:url(#SVGID_11_);}
	.st9{fill:url(#SVGID_12_);}
	.st10{fill:url(#SVGID_13_);}
	.st11{fill:url(#SVGID_14_);}
	.st12{fill:url(#SVGID_15_);}
	.st13{fill:url(#SVGID_16_);}
	.st14{fill:url(#SVGID_17_);}
	.st15{fill:url(#SVGID_18_);}
	.st16{fill:url(#SVGID_19_);}
	.st17{fill:url(#SVGID_20_);}
	.st18{fill:url(#SVGID_21_);}
	.st19{fill:url(#SVGID_22_);}
	.st20{fill:#FFD400;}
	.st21{fill:url(#SVGID_23_);}
	.st22{fill:url(#SVGID_24_);}
	.st23{fill:url(#SVGID_25_);}
	.st24{fill:url(#SVGID_26_);}
	.st25{fill:url(#SVGID_27_);}
	.st26{fill:url(#SVGID_28_);}
	.st27{fill:url(#SVGID_29_);}
	.st28{fill:url(#SVGID_30_);}
	.st29{fill:url(#SVGID_31_);}
	.st30{fill:url(#SVGID_32_);}
	.st31{fill:url(#SVGID_33_);}
	.st32{fill:url(#SVGID_34_);}
	.st33{fill:url(#SVGID_35_);}
	.st34{fill:url(#SVGID_36_);}
	.st35{fill:url(#SVGID_37_);}
	.st36{fill:url(#SVGID_38_);}
	.st37{fill:url(#SVGID_39_);}
	.st38{fill:url(#SVGID_40_);}
	.st39{fill:url(#SVGID_41_);}
	.st40{fill:url(#SVGID_42_);}
	.st41{fill:url(#SVGID_43_);}
	.st42{fill:url(#SVGID_44_);}
	.st43{fill:url(#SVGID_45_);}
	.st44{fill:url(#SVGID_46_);}
	.st45{fill:url(#SVGID_47_);}
	.st46{fill:url(#SVGID_48_);}
	.st47{fill:url(#SVGID_49_);}
	.st48{fill:url(#SVGID_50_);}
	.st49{fill:url(#SVGID_51_);}
	.st50{fill:url(#SVGID_52_);}
	.st51{fill:#C72697;}
	.st52{clip-path:url(#SVGID_6_);fill:url(#SVGID_53_);}
	.st53{clip-path:url(#SVGID_6_);fill:url(#SVGID_54_);}
	.st54{clip-path:url(#SVGID_6_);fill:url(#SVGID_55_);}
	.st55{fill:#C72897;}
</style>
<title>logo_app_mdl</title>
<g>
	<g>
		<g>
			<polygon points="45.6,17.5 45.6,7.9 41.9,14.1 41.1,14.1 37.4,7.9 37.4,17.5 35.3,17.5 35.3,4 37.3,4 41.5,10.8 45.6,4 47.6,4 
				47.6,17.5 			"/>
		</g>
		<g>
			<path d="M49.6,17.5V4h5.2c3.6,0,6.4,2.9,6.4,6.7s-2.7,6.7-6.4,6.7H49.6z M54.8,15.5c2.5,0,4.4-2,4.4-4.7C59.1,8,57.3,6,54.8,6
				h-3.2v9.5H54.8z"/>
		</g>
		<g>
			<polygon points="62.4,17.5 62.4,4 64.5,4 64.5,15.5 70.3,15.5 70.3,17.5 			"/>
		</g>
	</g>
	<g>
		<path d="M83.2,5.4h-3.9v11.5h-1V5.4h-3.9V4.6h8.7V5.4z"/>
		<path d="M92,8.1v8.8h-0.9v-2c-0.7,1.3-2.1,2.2-3.8,2.2c-2.5,0-4.6-2-4.6-4.6c0-2.6,2.1-4.6,4.6-4.6c1.7,0,3.1,0.9,3.8,2.2v-2H92z
			 M91.1,12.5c0-2.1-1.6-3.8-3.7-3.8c-2.1,0-3.7,1.7-3.7,3.8s1.6,3.8,3.7,3.8C89.5,16.3,91.1,14.6,91.1,12.5z"/>
		<path d="M94.7,4h0.9v12.9h-0.9V4z"/>
		<path d="M106.7,12.6c0,0.1,0,0.3,0,0.4h-8c0.2,2,1.7,3.3,3.7,3.3c1.4,0,2.5-0.7,3.1-1.6l0.8,0.5c-0.7,1.2-2.1,2-3.9,2
			c-2.7,0-4.6-1.9-4.6-4.6c0-2.6,1.9-4.6,4.6-4.6C105,7.9,106.7,10.1,106.7,12.6z M98.7,12.1h7.1c-0.2-2.2-1.7-3.4-3.4-3.4
			C100.3,8.8,98.8,10.1,98.7,12.1z"/>
		<path d="M116.2,11.4v5.5h-0.9v-5.5c0-1.6-0.9-2.7-2.6-2.7c-1.7,0-3.1,1.1-3.1,3.5v4.7h-0.9V8.1h0.9v1.7c0.7-1.3,1.8-1.9,3.2-1.9
			C114.9,7.9,116.2,9.3,116.2,11.4z"/>
		<path d="M120.6,9v5.7c0,1.6,0.8,1.6,2.6,1.4v0.8c-2.3,0.4-3.5-0.2-3.5-2.2V9h-1.9V8.1h1.9V5.9l0.9-0.3v2.5h2.6V9H120.6z"/>
		<path d="M139.3,4.6v12.4h-0.9V11h-7.2v5.9h-0.9V4.6h0.9v5.6h7.2V4.6H139.3z"/>
		<path d="M149.4,8.1v8.8h-0.9v-1.7c-0.7,1.3-1.8,1.9-3.2,1.9c-2.1,0-3.4-1.4-3.4-3.5V8.1h0.9v5.5c0,1.6,0.9,2.7,2.6,2.7
			c1.7,0,3.1-1.1,3.1-3.5V8.1H149.4z"/>
		<path d="M161.4,12.5c0,2.6-2,4.6-4.6,4.6c-1.7,0-3.1-0.9-3.8-2.2v2h-0.9V4.6h0.9v5.6c0.7-1.4,2.1-2.2,3.8-2.2
			C159.4,7.9,161.4,9.9,161.4,12.5z M160.5,12.5c0-2.1-1.6-3.8-3.7-3.8c-2.1,0-3.7,1.7-3.7,3.8s1.6,3.8,3.7,3.8
			C158.9,16.3,160.5,14.6,160.5,12.5z"/>
	</g>
</g>
<g>
	<radialGradient id="SVGID_1_" cx="13.2315" cy="5.2291" r="4.9319" fx="13.222" fy="8.6582" gradientUnits="userSpaceOnUse">
		<stop  offset="0.1574" style="stop-color:#0044C7"/>
		<stop  offset="0.2858" style="stop-color:#0158CD"/>
		<stop  offset="0.5491" style="stop-color:#058CDB"/>
		<stop  offset="0.9211" style="stop-color:#0ADFF2"/>
		<stop  offset="1" style="stop-color:#0BF1F7"/>
	</radialGradient>
	<circle class="st0" cx="13.2" cy="5.1" r="4.9"/>
	<g>
		<defs>
			<circle id="SVGID_2_" cx="13.2" cy="5.1" r="4.9"/>
		</defs>
		<clipPath id="SVGID_3_">
			<use xlink:href="#SVGID_2_"  style="overflow:visible;"/>
		</clipPath>
		
			<radialGradient id="SVGID_4_" cx="8981.4805" cy="6735.6421" r="10.5626" gradientTransform="matrix(-2.395484e-02 -0.8895 1.0126 -2.727226e-02 -6592.2891 8187.2749)" gradientUnits="userSpaceOnUse">
			<stop  offset="0.4172" style="stop-color:#FFFFFF"/>
			<stop  offset="0.9949" style="stop-color:#FFFFFF;stop-opacity:0"/>
		</radialGradient>
		<path class="st1" d="M13.1,5.5C19,5.3,23.9,9.4,24,14.6s-4.5,9.5-10.4,9.7c-5.9,0.2-10.8-3.9-10.9-9.1S7.2,5.6,13.1,5.5z"/>
	</g>
	<g>
		<defs>
			<path id="SVGID_5_" d="M25.3,14.9c0.7-0.7,1.1-1.7,1-2.7c-0.1-1.6-1.4-2.9-3-3c-0.5,0-1,0-1.4,0.2c-0.1,0-4.8,1.4-7.2,2.1
				c-1,0.3-2,0.3-2.9,0c-2.5-0.7-7.2-2.1-7.3-2.1C4,9.2,3.6,9.1,3.1,9.2c-1.6,0.2-2.9,1.5-3,3c-0.1,1.1,0.3,2.1,1,2.7
				c0.1,0.1,3.7,3.9,5.5,5.8c0.6,0.6,1,1.4,1.3,2.2c0.7,2.4,2,7.4,2.1,7.4c0.3,1.5,1.7,2.6,3.3,2.6s2.9-1.1,3.3-2.6
				c0-0.1,1.4-5.1,2.1-7.5c0.2-0.8,0.7-1.6,1.3-2.2L25.3,14.9z"/>
		</defs>
		<clipPath id="SVGID_6_">
			<use xlink:href="#SVGID_5_"  style="overflow:visible;"/>
		</clipPath>
		<g class="st2">
			<circle class="st3" cx="23" cy="12.4" r="3.4"/>
			<linearGradient id="SVGID_7_" gradientUnits="userSpaceOnUse" x1="19.5998" y1="14.4621" x2="25.8096" y2="10.6989">
				<stop  offset="0" style="stop-color:#22D9ED"/>
				<stop  offset="1" style="stop-color:#1ED9EE"/>
			</linearGradient>
			<circle class="st4" cx="22.4" cy="12.8" r="3.6"/>
			<linearGradient id="SVGID_8_" gradientUnits="userSpaceOnUse" x1="18.8168" y1="14.9286" x2="25.3988" y2="10.9398">
				<stop  offset="0" style="stop-color:#31CEE7"/>
				<stop  offset="1" style="stop-color:#29CEE8"/>
			</linearGradient>
			<circle class="st5" cx="21.8" cy="13.1" r="3.8"/>
			<linearGradient id="SVGID_9_" gradientUnits="userSpaceOnUse" x1="18.0338" y1="15.3951" x2="24.988" y2="11.1807">
				<stop  offset="0" style="stop-color:#3FC2E0"/>
				<stop  offset="1" style="stop-color:#34C2E3"/>
			</linearGradient>
			<circle class="st6" cx="21.2" cy="13.5" r="4.1"/>
			<linearGradient id="SVGID_10_" gradientUnits="userSpaceOnUse" x1="17.2508" y1="15.8615" x2="24.5772" y2="11.4216">
				<stop  offset="0" style="stop-color:#4EB6DA"/>
				<stop  offset="0.1891" style="stop-color:#4AB6DB"/>
				<stop  offset="1" style="stop-color:#3FB6DD"/>
			</linearGradient>
			<circle class="st7" cx="20.6" cy="13.9" r="4.3"/>
			<linearGradient id="SVGID_11_" gradientUnits="userSpaceOnUse" x1="16.4678" y1="16.328" x2="24.1664" y2="11.6625">
				<stop  offset="0" style="stop-color:#5DABD3"/>
				<stop  offset="0.3272" style="stop-color:#55ABD5"/>
				<stop  offset="1" style="stop-color:#4AABD7"/>
			</linearGradient>
			<circle class="st8" cx="19.9" cy="14.2" r="4.5"/>
			<linearGradient id="SVGID_12_" gradientUnits="userSpaceOnUse" x1="15.6848" y1="16.7944" x2="23.7556" y2="11.9034">
				<stop  offset="0" style="stop-color:#6C9FCC"/>
				<stop  offset="0.4214" style="stop-color:#609FCE"/>
				<stop  offset="1" style="stop-color:#559FD1"/>
			</linearGradient>
			<circle class="st9" cx="19.3" cy="14.6" r="4.7"/>
			<linearGradient id="SVGID_13_" gradientUnits="userSpaceOnUse" x1="14.9018" y1="17.2609" x2="23.3449" y2="12.1443">
				<stop  offset="0" style="stop-color:#7A93C6"/>
				<stop  offset="0.4748" style="stop-color:#6B93C9"/>
				<stop  offset="1" style="stop-color:#6093CB"/>
			</linearGradient>
			<circle class="st10" cx="18.7" cy="15" r="4.9"/>
			<linearGradient id="SVGID_14_" gradientUnits="userSpaceOnUse" x1="14.1188" y1="17.7274" x2="22.9341" y2="12.3852">
				<stop  offset="0" style="stop-color:#8988BF"/>
				<stop  offset="0.5303" style="stop-color:#7788C3"/>
				<stop  offset="1" style="stop-color:#6B88C6"/>
			</linearGradient>
			<circle class="st11" cx="18.1" cy="15.3" r="5.2"/>
			<linearGradient id="SVGID_15_" gradientUnits="userSpaceOnUse" x1="13.3358" y1="18.1938" x2="22.5233" y2="12.6261">
				<stop  offset="0" style="stop-color:#987CB8"/>
				<stop  offset="0.5744" style="stop-color:#827CBD"/>
				<stop  offset="1" style="stop-color:#767CC0"/>
			</linearGradient>
			<circle class="st12" cx="17.5" cy="15.7" r="5.4"/>
			<linearGradient id="SVGID_16_" gradientUnits="userSpaceOnUse" x1="12.5528" y1="18.6603" x2="22.1125" y2="12.867">
				<stop  offset="0" style="stop-color:#A770B2"/>
				<stop  offset="0.6102" style="stop-color:#8D70B8"/>
				<stop  offset="1" style="stop-color:#8170BA"/>
			</linearGradient>
			<circle class="st13" cx="16.9" cy="16" r="5.6"/>
			<linearGradient id="SVGID_17_" gradientUnits="userSpaceOnUse" x1="11.7699" y1="19.1268" x2="21.7017" y2="13.1079">
				<stop  offset="0" style="stop-color:#B564AB"/>
				<stop  offset="0.6328" style="stop-color:#9864B1"/>
				<stop  offset="1" style="stop-color:#8C64B4"/>
			</linearGradient>
			<circle class="st14" cx="16.2" cy="16.4" r="5.8"/>
			<linearGradient id="SVGID_18_" gradientUnits="userSpaceOnUse" x1="10.9869" y1="19.5932" x2="21.2909" y2="13.3488">
				<stop  offset="0" style="stop-color:#C459A5"/>
				<stop  offset="5.115652e-02" style="stop-color:#C159A6"/>
				<stop  offset="0.6588" style="stop-color:#A359AC"/>
				<stop  offset="1" style="stop-color:#9759AE"/>
			</linearGradient>
			<circle class="st15" cx="15.6" cy="16.8" r="6"/>
			<linearGradient id="SVGID_19_" gradientUnits="userSpaceOnUse" x1="10.2039" y1="20.0597" x2="20.8801" y2="13.5897">
				<stop  offset="0" style="stop-color:#D34D9E"/>
				<stop  offset="0.1129" style="stop-color:#CC4D9F"/>
				<stop  offset="0.681" style="stop-color:#AE4DA6"/>
				<stop  offset="1" style="stop-color:#A24DA8"/>
			</linearGradient>
			<circle class="st16" cx="15" cy="17.1" r="6.2"/>
			<linearGradient id="SVGID_20_" gradientUnits="userSpaceOnUse" x1="9.4209" y1="20.5262" x2="20.4693" y2="13.8307">
				<stop  offset="0" style="stop-color:#E24197"/>
				<stop  offset="0.1661" style="stop-color:#D74199"/>
				<stop  offset="0.7001" style="stop-color:#B941A0"/>
				<stop  offset="1" style="stop-color:#AD41A3"/>
			</linearGradient>
			<circle class="st17" cx="14.4" cy="17.5" r="6.5"/>
			<linearGradient id="SVGID_21_" gradientUnits="userSpaceOnUse" x1="8.6379" y1="20.9926" x2="20.0585" y2="14.0716">
				<stop  offset="0" style="stop-color:#F03691"/>
				<stop  offset="0.2017" style="stop-color:#E23694"/>
				<stop  offset="0.7128" style="stop-color:#C4369B"/>
				<stop  offset="1" style="stop-color:#B8369D"/>
			</linearGradient>
			<circle class="st18" cx="13.8" cy="17.9" r="6.7"/>
			<linearGradient id="SVGID_22_" gradientUnits="userSpaceOnUse" x1="7.8549" y1="21.4591" x2="19.6477" y2="14.3125">
				<stop  offset="0" style="stop-color:#FF2A8A"/>
				<stop  offset="0.244" style="stop-color:#ED2A8E"/>
				<stop  offset="0.728" style="stop-color:#CF2A94"/>
				<stop  offset="1" style="stop-color:#C32A97"/>
			</linearGradient>
			<circle class="st19" cx="13.2" cy="18.2" r="6.9"/>
		</g>
		<g class="st2">
		</g>
		<g class="st2">
			<circle class="st20" cx="3.4" cy="12.5" r="3.4"/>
			<linearGradient id="SVGID_23_" gradientUnits="userSpaceOnUse" x1="1.0878" y1="14.5591" x2="7.3061" y2="10.9969">
				<stop  offset="0" style="stop-color:#FFC909"/>
				<stop  offset="1" style="stop-color:#FBC909"/>
			</linearGradient>
			<circle class="st21" cx="4" cy="12.9" r="3.6"/>
			<linearGradient id="SVGID_24_" gradientUnits="userSpaceOnUse" x1="1.5217" y1="15.0312" x2="8.1195" y2="11.2516">
				<stop  offset="0" style="stop-color:#FFBF11"/>
				<stop  offset="1" style="stop-color:#F8BF13"/>
			</linearGradient>
			<circle class="st22" cx="4.6" cy="13.3" r="3.8"/>
			<linearGradient id="SVGID_25_" gradientUnits="userSpaceOnUse" x1="1.9556" y1="15.5033" x2="8.933" y2="11.5062">
				<stop  offset="0" style="stop-color:#FFB41A"/>
				<stop  offset="1" style="stop-color:#F4B41C"/>
			</linearGradient>
			<circle class="st23" cx="5.2" cy="13.6" r="4"/>
			<linearGradient id="SVGID_26_" gradientUnits="userSpaceOnUse" x1="2.3895" y1="15.9754" x2="9.7464" y2="11.7609">
				<stop  offset="0" style="stop-color:#FFAA23"/>
				<stop  offset="0.1915" style="stop-color:#FBAA24"/>
				<stop  offset="1" style="stop-color:#F0AA26"/>
			</linearGradient>
			<circle class="st24" cx="5.9" cy="14" r="4.2"/>
			<linearGradient id="SVGID_27_" gradientUnits="userSpaceOnUse" x1="2.8234" y1="16.4475" x2="10.5599" y2="12.0156">
				<stop  offset="0" style="stop-color:#FF9F2B"/>
				<stop  offset="0.329" style="stop-color:#F79F2D"/>
				<stop  offset="1" style="stop-color:#EC9F2F"/>
			</linearGradient>
			<circle class="st25" cx="6.5" cy="14.4" r="4.5"/>
			<linearGradient id="SVGID_28_" gradientUnits="userSpaceOnUse" x1="3.2573" y1="16.9196" x2="11.3733" y2="12.2703">
				<stop  offset="0" style="stop-color:#FF9434"/>
				<stop  offset="0.4023" style="stop-color:#F49436"/>
				<stop  offset="1" style="stop-color:#E99439"/>
			</linearGradient>
			<circle class="st26" cx="7.1" cy="14.7" r="4.7"/>
			<linearGradient id="SVGID_29_" gradientUnits="userSpaceOnUse" x1="3.6913" y1="17.3917" x2="12.1868" y2="12.5249">
				<stop  offset="0" style="stop-color:#FF8A3C"/>
				<stop  offset="0.4761" style="stop-color:#F08A3F"/>
				<stop  offset="1" style="stop-color:#E58A42"/>
			</linearGradient>
			<circle class="st27" cx="7.7" cy="15.1" r="4.9"/>
			<linearGradient id="SVGID_30_" gradientUnits="userSpaceOnUse" x1="4.1252" y1="17.8638" x2="13.0002" y2="12.7796">
				<stop  offset="0" style="stop-color:#FF7F45"/>
				<stop  offset="0.5314" style="stop-color:#EC7F49"/>
				<stop  offset="1" style="stop-color:#E17F4C"/>
			</linearGradient>
			<circle class="st28" cx="8.3" cy="15.5" r="5.1"/>
			<linearGradient id="SVGID_31_" gradientUnits="userSpaceOnUse" x1="4.5591" y1="18.3359" x2="13.8137" y2="13.0343">
				<stop  offset="0" style="stop-color:#FF744E"/>
				<stop  offset="0.5754" style="stop-color:#E87453"/>
				<stop  offset="1" style="stop-color:#DD7455"/>
			</linearGradient>
			<circle class="st29" cx="8.9" cy="15.8" r="5.3"/>
			<linearGradient id="SVGID_32_" gradientUnits="userSpaceOnUse" x1="4.993" y1="18.808" x2="14.6271" y2="13.289">
				<stop  offset="0" style="stop-color:#FF6A56"/>
				<stop  offset="0.6027" style="stop-color:#E56A5C"/>
				<stop  offset="1" style="stop-color:#DA6A5E"/>
			</linearGradient>
			<circle class="st30" cx="9.5" cy="16.2" r="5.6"/>
			<linearGradient id="SVGID_33_" gradientUnits="userSpaceOnUse" x1="5.4269" y1="19.2801" x2="15.4405" y2="13.5437">
				<stop  offset="0" style="stop-color:#FF5F5F"/>
				<stop  offset="0.6336" style="stop-color:#E15F65"/>
				<stop  offset="1" style="stop-color:#D65F68"/>
			</linearGradient>
			<circle class="st31" cx="10.1" cy="16.6" r="5.8"/>
			<linearGradient id="SVGID_34_" gradientUnits="userSpaceOnUse" x1="5.8608" y1="19.7521" x2="16.254" y2="13.7983">
				<stop  offset="0" style="stop-color:#FF5568"/>
				<stop  offset="5.395848e-02" style="stop-color:#FC5569"/>
				<stop  offset="0.6595" style="stop-color:#DD556F"/>
				<stop  offset="1" style="stop-color:#D25571"/>
			</linearGradient>
			<circle class="st32" cx="10.8" cy="17" r="6"/>
			<linearGradient id="SVGID_35_" gradientUnits="userSpaceOnUse" x1="6.2947" y1="20.2242" x2="17.0674" y2="14.053">
				<stop  offset="0" style="stop-color:#FF4A70"/>
				<stop  offset="0.1155" style="stop-color:#F84A72"/>
				<stop  offset="0.6816" style="stop-color:#D94A78"/>
				<stop  offset="1" style="stop-color:#CE4A7B"/>
			</linearGradient>
			<circle class="st33" cx="11.4" cy="17.3" r="6.2"/>
			<linearGradient id="SVGID_36_" gradientUnits="userSpaceOnUse" x1="6.7286" y1="20.6963" x2="17.8809" y2="14.3077">
				<stop  offset="0" style="stop-color:#FF3F79"/>
				<stop  offset="0.1559" style="stop-color:#F53F7B"/>
				<stop  offset="0.6961" style="stop-color:#D63F82"/>
				<stop  offset="1" style="stop-color:#CB3F84"/>
			</linearGradient>
			<circle class="st34" cx="12" cy="17.7" r="6.4"/>
			<linearGradient id="SVGID_37_" gradientUnits="userSpaceOnUse" x1="7.1626" y1="21.1684" x2="18.6943" y2="14.5624">
				<stop  offset="0" style="stop-color:#FF3581"/>
				<stop  offset="0.2039" style="stop-color:#F13584"/>
				<stop  offset="0.7134" style="stop-color:#D2358B"/>
				<stop  offset="1" style="stop-color:#C7358E"/>
			</linearGradient>
			<circle class="st35" cx="12.6" cy="18.1" r="6.6"/>
			<linearGradient id="SVGID_38_" gradientUnits="userSpaceOnUse" x1="7.5965" y1="21.6405" x2="19.5078" y2="14.817">
				<stop  offset="0" style="stop-color:#FF2A8A"/>
				<stop  offset="0.246" style="stop-color:#ED2A8E"/>
				<stop  offset="0.7285" style="stop-color:#CE2A95"/>
				<stop  offset="1" style="stop-color:#C32A97"/>
			</linearGradient>
			<circle class="st36" cx="13.2" cy="18.4" r="6.9"/>
			<linearGradient id="SVGID_39_" gradientUnits="userSpaceOnUse" x1="7.7869" y1="22.2785" x2="19.2934" y2="15.6869">
				<stop  offset="0" style="stop-color:#FB2A8B"/>
				<stop  offset="0.2039" style="stop-color:#ED2A8E"/>
				<stop  offset="0.7134" style="stop-color:#CE2A95"/>
				<stop  offset="1" style="stop-color:#C32A97"/>
			</linearGradient>
			<circle class="st37" cx="13.2" cy="19.2" r="6.6"/>
			<linearGradient id="SVGID_40_" gradientUnits="userSpaceOnUse" x1="7.9774" y1="22.9164" x2="19.079" y2="16.5568">
				<stop  offset="0" style="stop-color:#F8298C"/>
				<stop  offset="0.1559" style="stop-color:#EE298E"/>
				<stop  offset="0.6961" style="stop-color:#CF2995"/>
				<stop  offset="1" style="stop-color:#C42997"/>
			</linearGradient>
			<circle class="st38" cx="13.2" cy="19.9" r="6.4"/>
			<linearGradient id="SVGID_41_" gradientUnits="userSpaceOnUse" x1="8.1679" y1="23.5544" x2="18.8647" y2="17.4266">
				<stop  offset="0" style="stop-color:#F4298D"/>
				<stop  offset="0.1009" style="stop-color:#EE298E"/>
				<stop  offset="0.6764" style="stop-color:#CF2995"/>
				<stop  offset="1" style="stop-color:#C42997"/>
			</linearGradient>
			<circle class="st39" cx="13.2" cy="20.7" r="6.2"/>
			<linearGradient id="SVGID_42_" gradientUnits="userSpaceOnUse" x1="8.3583" y1="24.1923" x2="18.6503" y2="18.2965">
				<stop  offset="0" style="stop-color:#F0298D"/>
				<stop  offset="3.701454e-02" style="stop-color:#EE298D"/>
				<stop  offset="0.6534" style="stop-color:#CF2994"/>
				<stop  offset="1" style="stop-color:#C42997"/>
			</linearGradient>
			<circle class="st40" cx="13.2" cy="21.4" r="5.9"/>
			<linearGradient id="SVGID_43_" gradientUnits="userSpaceOnUse" x1="8.5488" y1="24.8302" x2="18.4359" y2="19.1663">
				<stop  offset="0" style="stop-color:#EC298E"/>
				<stop  offset="0.6264" style="stop-color:#CF2994"/>
				<stop  offset="1" style="stop-color:#C42997"/>
			</linearGradient>
			<circle class="st41" cx="13.2" cy="22.2" r="5.7"/>
			<linearGradient id="SVGID_44_" gradientUnits="userSpaceOnUse" x1="8.7393" y1="25.4682" x2="18.2215" y2="20.0362">
				<stop  offset="0" style="stop-color:#E9288F"/>
				<stop  offset="0.5941" style="stop-color:#D02894"/>
				<stop  offset="1" style="stop-color:#C52897"/>
			</linearGradient>
			<circle class="st42" cx="13.2" cy="22.9" r="5.5"/>
			<linearGradient id="SVGID_45_" gradientUnits="userSpaceOnUse" x1="8.9297" y1="26.1061" x2="18.0072" y2="20.906">
				<stop  offset="0" style="stop-color:#E52890"/>
				<stop  offset="0.5546" style="stop-color:#D02894"/>
				<stop  offset="1" style="stop-color:#C52897"/>
			</linearGradient>
			<circle class="st43" cx="13.2" cy="23.7" r="5.2"/>
			<linearGradient id="SVGID_46_" gradientUnits="userSpaceOnUse" x1="9.1202" y1="26.7441" x2="17.7928" y2="21.7759">
				<stop  offset="0" style="stop-color:#E12891"/>
				<stop  offset="0.5052" style="stop-color:#D02895"/>
				<stop  offset="1" style="stop-color:#C52897"/>
			</linearGradient>
			<circle class="st44" cx="13.2" cy="24.4" r="5"/>
			<linearGradient id="SVGID_47_" gradientUnits="userSpaceOnUse" x1="9.3106" y1="27.382" x2="17.5784" y2="22.6458">
				<stop  offset="0" style="stop-color:#DD2892"/>
				<stop  offset="0.4419" style="stop-color:#D02895"/>
				<stop  offset="1" style="stop-color:#C52897"/>
			</linearGradient>
			<circle class="st45" cx="13.2" cy="25.2" r="4.8"/>
			<linearGradient id="SVGID_48_" gradientUnits="userSpaceOnUse" x1="9.5011" y1="28.02" x2="17.3641" y2="23.5156">
				<stop  offset="0" style="stop-color:#DA2793"/>
				<stop  offset="0.3557" style="stop-color:#D12795"/>
				<stop  offset="1" style="stop-color:#C62797"/>
			</linearGradient>
			<circle class="st46" cx="13.2" cy="25.9" r="4.5"/>
			<linearGradient id="SVGID_49_" gradientUnits="userSpaceOnUse" x1="9.6916" y1="28.6579" x2="17.1497" y2="24.3855">
				<stop  offset="0" style="stop-color:#D62794"/>
				<stop  offset="0.2316" style="stop-color:#D12795"/>
				<stop  offset="1" style="stop-color:#C62797"/>
			</linearGradient>
			<circle class="st47" cx="13.2" cy="26.6" r="4.3"/>
			<linearGradient id="SVGID_50_" gradientUnits="userSpaceOnUse" x1="9.882" y1="29.2959" x2="16.9353" y2="25.2553">
				<stop  offset="0" style="stop-color:#D22794"/>
				<stop  offset="3.593540e-02" style="stop-color:#D12794"/>
				<stop  offset="1" style="stop-color:#C62797"/>
			</linearGradient>
			<circle class="st48" cx="13.2" cy="27.4" r="4.1"/>
			<linearGradient id="SVGID_51_" gradientUnits="userSpaceOnUse" x1="10.0725" y1="29.9338" x2="16.721" y2="26.1252">
				<stop  offset="0" style="stop-color:#CE2795"/>
				<stop  offset="1" style="stop-color:#C62797"/>
			</linearGradient>
			<circle class="st49" cx="13.2" cy="28.1" r="3.8"/>
			<linearGradient id="SVGID_52_" gradientUnits="userSpaceOnUse" x1="10.263" y1="30.5718" x2="16.5066" y2="26.995">
				<stop  offset="0" style="stop-color:#CB2696"/>
				<stop  offset="1" style="stop-color:#C72697"/>
			</linearGradient>
			<circle class="st50" cx="13.2" cy="28.9" r="3.6"/>
			<circle class="st51" cx="13.2" cy="29.6" r="3.4"/>
		</g>
		
			<radialGradient id="SVGID_53_" cx="-3286.624" cy="1484.0775" r="10.5626" gradientTransform="matrix(0.7427 0.3032 -0.433 1.0606 3107.521 -553.3461)" gradientUnits="userSpaceOnUse">
			<stop  offset="0.5385" style="stop-color:#FFFFFF"/>
			<stop  offset="0.9949" style="stop-color:#FFFFFF;stop-opacity:0"/>
		</radialGradient>
		<path class="st52" d="M31.7,27.4c-2.5,6.2-8.1,9.8-12.4,8S13.5,27.2,16,21s8.1-9.8,12.4-8S34.3,21.2,31.7,27.4z"/>
		
			<radialGradient id="SVGID_54_" cx="-2832.5449" cy="1354.2651" r="10.5626" gradientTransform="matrix(-0.7427 0.3032 0.433 1.0606 -2687.2085 -553.3461)" gradientUnits="userSpaceOnUse">
			<stop  offset="0.5385" style="stop-color:#FFFFFF"/>
			<stop  offset="0.9949" style="stop-color:#FFFFFF;stop-opacity:0"/>
		</radialGradient>
		<path class="st53" d="M-4.9,27.4c2.5,6.2,8.1,9.8,12.4,8s5.8-8.2,3.3-14.4s-8.1-9.8-12.4-8S-7.4,21.2-4.9,27.4z"/>
		
			<radialGradient id="SVGID_55_" cx="8727.0107" cy="6735.7134" r="10.5626" gradientTransform="matrix(-2.159735e-02 -0.8019 1.0126 -2.727226e-02 -6619.1836 7188.6724)" gradientUnits="userSpaceOnUse">
			<stop  offset="0.5385" style="stop-color:#FFFFFF"/>
			<stop  offset="0.9949" style="stop-color:#FFFFFF;stop-opacity:0"/>
		</radialGradient>
		<path class="st54" d="M13-1.9c5.9-0.2,10.8,3.5,10.9,8.2s-4.6,8.6-10.5,8.8C7.5,15.2,2.6,11.5,2.5,6.8S7.1-1.8,13-1.9z"/>
		<g class="st2">
			
				<image style="overflow:visible;" width="130" height="123" xlink:href="52D7AA39EC168937.png"  transform="matrix(0.2756 0 0 0.2756 -4.8608 3.4697)">
			</image>
		</g>
	</g>
</g>
<g>
	<path class="st55" d="M39.2,29.9v0.9h-4.1v-6.9h4.1v0.9H36v2.1h2.9v0.9H36v2.2H39.2z"/>
	<path class="st55" d="M46.7,30.7L45,28l-1.7,2.7h-1l2.2-3.6l-2.1-3.4h1l1.6,2.5l1.6-2.5h1l-2.1,3.4l2.2,3.6H46.7z"/>
	<path class="st55" d="M55.9,26c0,1.3-1,2.2-2.2,2.2h-1.6v2.5h-0.9v-6.9h2.5C54.9,23.8,55.9,24.8,55.9,26z M55,26
		c0-0.8-0.6-1.4-1.3-1.4h-1.6v2.7h1.6C54.4,27.4,55,26.8,55,26z"/>
	<path class="st55" d="M63.4,29.9v0.9h-3.9v-6.9h0.9v6.1H63.4z"/>
	<path class="st55" d="M66.4,27.3c0-2,1.6-3.6,3.6-3.6c2,0,3.6,1.6,3.6,3.6c0,2-1.6,3.6-3.6,3.6C68,30.9,66.4,29.3,66.4,27.3z
		 M72.7,27.3c0-1.5-1.2-2.7-2.7-2.7c-1.5,0-2.7,1.2-2.7,2.7c0,1.5,1.2,2.7,2.7,2.7C71.5,30,72.7,28.8,72.7,27.3z"/>
	<path class="st55" d="M79.8,28.1h-1.6v2.7h-0.9v-6.9H80c1.2,0,2.2,1,2.2,2.2c0,0.9-0.6,1.7-1.4,2l1.6,2.8h-1L79.8,28.1z M78.1,27.2
		H80c0.7,0,1.2-0.6,1.2-1.3s-0.6-1.3-1.2-1.3h-1.9V27.2z"/>
	<path class="st55" d="M89.9,29.9v0.9h-4.1v-6.9h4.1v0.9h-3.2v2.1h2.9v0.9h-2.9v2.2H89.9z"/>
	<path class="st55" d="M96.1,28.1h-1.6v2.7h-0.9v-6.9h2.8c1.2,0,2.2,1,2.2,2.2c0,0.9-0.6,1.7-1.4,2l1.6,2.8h-1L96.1,28.1z
		 M94.4,27.2h1.9c0.7,0,1.2-0.6,1.2-1.3s-0.6-1.3-1.2-1.3h-1.9V27.2z"/>
</g>
</svg>
